<svg width="28" height="12" viewBox="0 0 28 12" fill="none" xmlns="http://www.w3.org/2000/svg">
<g clip-path="url(#clip0)">
<path d="M0.0670509 11.7885L2.71823 11.0539L3.49385 3.6748H6.75439L4.74164 4.376L4.43801 11.7885H0.0670509Z" fill="white"/>
<path d="M3.34783 3.40706L7.03315 3.06274H3.07806L2.96002 4.66962L3.34783 3.40706Z" fill="white"/>
<path d="M5.12308 1.61035H5.0851C4.84515 1.61035 4.64881 1.80476 4.64881 2.04235V2.71227H5.55928V2.04235C5.55928 1.80476 5.36294 1.61035 5.12308 1.61035Z" fill="white"/>
<path d="M6.75428 2.59714V2.32653C6.75428 2.08886 6.55802 1.89453 6.31799 1.89453C6.07804 1.89453 5.8817 2.08886 5.8817 2.32653V2.59714C5.8817 2.63724 5.88909 2.67534 5.89959 2.71228H6.73647C6.74688 2.67534 6.75428 2.63724 6.75428 2.59714Z" fill="white"/>
<path d="M4.37691 2.32653C4.37691 2.08894 4.18056 1.89453 3.94062 1.89453C3.70067 1.89453 3.50433 2.08894 3.50433 2.32653V2.59714C3.50433 2.63724 3.51172 2.67534 3.52222 2.71228H4.3591C4.36951 2.67534 4.37691 2.63724 4.37691 2.59714V2.32653Z" fill="white"/>
<path d="M5.1019 0.0951172C5.1019 0.0936198 5.09585 0.0936198 5.09585 0.0951172C5.09585 0.748483 3.68499 1.20644 3.68499 1.20644C3.52721 1.36267 3.39909 1.5649 3.39909 1.7935V1.88251C3.6124 1.41108 4.29132 1.09838 5.09888 1.09838C5.9134 1.09838 6.5977 1.41691 6.8048 1.89458H6.809V1.79949C6.809 1.57338 6.70113 1.39178 6.52646 1.21883C6.52646 1.21883 5.1019 0.771859 5.1019 0.0951172Z" fill="white"/>
<path d="M7.55961 9.35541V3.78467H9.58487V5.63787H10.8185V3.78467H12.8399V9.35541H10.8185V7.39191H9.58487V9.35541H7.55961Z" fill="white"/>
<path d="M13.9044 9.35541V3.78467H17.6666V5.2953H15.8874V5.83186H17.5014V7.2588H15.8874V7.84487H17.7128V9.35541H13.9044Z" fill="white"/>
<path d="M18.5313 9.35541V3.78467H20.5565V7.54797H22.5241V9.35541H18.5313Z" fill="white"/>
<path d="M23.1429 9.35541V3.78467H25.5601C26.4106 3.78467 27.0326 3.94689 27.4259 4.27166C27.8191 4.59642 28.0157 5.11136 28.0157 5.81664C28.0157 6.47358 27.839 6.95375 27.4854 7.2568C27.1319 7.56011 26.5708 7.71168 25.8022 7.71168H25.1681V9.35549H23.1429V9.35541ZM25.1758 5.33323V6.2617H25.4909C25.6831 6.2617 25.8303 6.22185 25.9328 6.14199C26.0353 6.06205 26.0866 5.94858 26.0866 5.80125C26.0866 5.65417 26.034 5.53954 25.929 5.45693C25.824 5.37449 25.6779 5.33323 25.4909 5.33323H25.1758Z" fill="white"/>
<path d="M8.0461 10.3596V10.6775H8.60917V11.0962H8.0461V11.424H8.63966V11.8428H7.5468V9.94092H8.63966V10.3596H8.0461Z" fill="white"/>
<path d="M9.64845 10.844H8.91987V11.2225H9.64845V10.844Z" fill="white"/>
<path d="M11.3197 9.98648V10.5793C11.2688 10.512 11.2042 10.4607 11.126 10.4254C11.048 10.3901 10.9664 10.3725 10.8815 10.3725C10.7286 10.3725 10.6051 10.4232 10.5109 10.525C10.4166 10.6268 10.3695 10.7517 10.3695 10.8996C10.3695 11.0493 10.4174 11.173 10.5134 11.2705C10.6093 11.3679 10.7346 11.4167 10.8891 11.4167C10.9707 11.4167 11.0497 11.3987 11.126 11.3625C11.2025 11.3263 11.267 11.2772 11.3197 11.215V11.8052C11.2738 11.8205 11.2305 11.8334 11.1898 11.8443C11.149 11.8553 11.1091 11.865 11.07 11.8735C11.0395 11.8802 11.0084 11.8852 10.9771 11.8886C10.9456 11.8919 10.9129 11.8938 10.8789 11.8938C10.7448 11.8938 10.6161 11.8698 10.4931 11.8219C10.3698 11.7739 10.2582 11.7054 10.158 11.6162C10.0527 11.522 9.97502 11.4139 9.92487 11.292C9.87479 11.1703 9.84976 11.0387 9.84976 10.8973C9.84976 10.768 9.87395 10.6426 9.92235 10.5216C9.97074 10.4004 10.0408 10.2936 10.1326 10.201C10.2242 10.1087 10.3321 10.035 10.4561 9.98041C10.58 9.92584 10.7083 9.89672 10.8407 9.89331H10.8522H10.8636C10.9435 9.89331 11.0212 9.9018 11.0968 9.91868C11.1723 9.93549 11.2466 9.95886 11.3197 9.98923V9.98648Z" fill="white"/>
<path d="M12.5934 9.87793C12.8702 9.87968 13.1165 9.97168 13.3322 10.1541C13.5478 10.3366 13.6557 10.5716 13.6557 10.8591C13.6557 11.1669 13.5559 11.4185 13.3564 11.6133C13.1568 11.8085 12.9025 11.906 12.5934 11.906C12.2859 11.906 12.032 11.8085 11.8317 11.6133C11.6313 11.4184 11.5311 11.1669 11.5311 10.8591C11.5311 10.5716 11.6389 10.3367 11.8546 10.1541C12.0703 9.97168 12.3166 9.88043 12.5934 9.88043V9.87793ZM12.21 10.5123C12.1038 10.6142 12.0508 10.7305 12.0508 10.8617C12.0508 11.0249 12.1038 11.1602 12.21 11.2678C12.3161 11.3755 12.444 11.4292 12.5934 11.4292C12.7428 11.4292 12.8706 11.3753 12.9768 11.2674C13.0829 11.1596 13.136 11.0239 13.136 10.8604C13.136 10.729 13.0829 10.6122 12.9768 10.5102C12.8706 10.4081 12.7428 10.3572 12.5934 10.3572C12.444 10.3589 12.3161 10.4107 12.21 10.5123Z" fill="white"/>
<path d="M14.099 9.94092H14.5907L14.9804 10.9576L15.3932 9.94092H15.8899L16.1803 11.8429H15.681L15.541 10.7481H15.5358L15.0747 11.8429H14.876L14.4352 10.7481H14.4302L14.2697 11.8429H13.773L14.099 9.94092Z" fill="white"/>
<path d="M16.6032 9.94092H17.0949L17.4847 10.9576L17.8973 9.94092H18.3941L18.6845 11.8429H18.1853L18.0451 10.7481H18.04L17.5789 11.8429H17.3802L16.9395 10.7481H16.9344L16.7739 11.8429H16.2771L16.6032 9.94092Z" fill="white"/>
<path d="M19.3952 10.3596V10.6775H19.9582V11.0962H19.3952V11.424H19.9888V11.8428H18.8959V9.94092H19.9888V10.3596H19.3952Z" fill="white"/>
<path d="M21.2906 11.0635L21.8943 11.8429H21.2727L20.8014 11.1114H20.7963V11.8429H20.297V9.94092H21.0434C21.2336 9.94266 21.3925 9.99025 21.5199 10.0836C21.6472 10.1769 21.7109 10.3252 21.7109 10.5287C21.7109 10.6599 21.6748 10.7764 21.6026 10.8781C21.5304 10.9799 21.4264 11.0425 21.2906 11.066V11.0635ZM20.7963 10.7935H20.8447C20.8532 10.7953 20.8617 10.796 20.8702 10.796H20.8931C20.9679 10.7927 21.0362 10.7755 21.0982 10.7444C21.1602 10.7132 21.1912 10.6514 21.1912 10.559C21.1912 10.4655 21.1602 10.403 21.0982 10.3716C21.0362 10.3401 20.9679 10.3227 20.8931 10.3193H20.8702H20.8447H20.7963V10.7935Z" fill="white"/>
<path d="M23.4024 9.98648V10.5793C23.3515 10.512 23.2869 10.4607 23.2088 10.4254C23.1307 10.3901 23.0491 10.3725 22.9642 10.3725C22.8113 10.3725 22.6878 10.4232 22.5936 10.525C22.4993 10.6268 22.4522 10.7517 22.4522 10.8996C22.4522 11.0493 22.5001 11.173 22.5961 11.2705C22.692 11.3679 22.8173 11.4167 22.9718 11.4167C23.0534 11.4167 23.1324 11.3987 23.2088 11.3625C23.2852 11.3263 23.3497 11.2772 23.4024 11.215V11.8052C23.3565 11.8205 23.3132 11.8334 23.2725 11.8443C23.2317 11.8553 23.1918 11.865 23.1527 11.8735C23.1222 11.8802 23.0911 11.8852 23.0598 11.8886C23.0283 11.8919 22.9956 11.8938 22.9616 11.8938C22.8275 11.8938 22.6988 11.8698 22.5758 11.8219C22.4526 11.7739 22.3409 11.7054 22.2407 11.6162C22.1354 11.522 22.0577 11.4139 22.0076 11.292C21.9575 11.1703 21.9325 11.0387 21.9325 10.8973C21.9325 10.768 21.9567 10.6426 22.005 10.5216C22.0534 10.4004 22.1235 10.2936 22.2153 10.201C22.3069 10.1087 22.4148 10.035 22.5388 9.98041C22.6627 9.92584 22.791 9.89672 22.9234 9.89331H22.9349H22.9464C23.0262 9.89331 23.1039 9.9018 23.1795 9.91868C23.255 9.93549 23.3294 9.95886 23.4024 9.98923V9.98648Z" fill="white"/>
<path d="M24.2099 10.3596V10.6775H24.7729V11.0962H24.2099V11.424H24.8035V11.8428H23.7106V9.94092H24.8035V10.3596H24.2099Z" fill="white"/>
</g>
<defs>
<clipPath id="clip0">
<rect width="28" height="12" fill="white"/>
</clipPath>
</defs>
</svg>
