<svg width="20" height="21" viewBox="0 0 20 21" fill="none" xmlns="http://www.w3.org/2000/svg">
<path d="M19.9492 5.8812C19.9023 4.81832 19.7304 4.08759 19.4842 3.45441C19.2302 2.7823 18.8394 2.18057 18.3274 1.68034C17.8272 1.17233 17.2215 0.777586 16.5572 0.52755C15.9203 0.281329 15.1934 0.109448 14.1306 0.0625854C13.0597 0.0117538 12.7198 0 10.0039 0C7.28799 0 6.94805 0.0117538 5.8812 0.0586166C4.81831 0.105479 4.08759 0.277513 3.45456 0.523581C2.7823 0.777586 2.18057 1.16836 1.68034 1.68034C1.17233 2.18057 0.777738 2.78627 0.527549 3.4506C0.281329 4.08759 0.109448 4.81435 0.0625854 5.87723C0.0117538 6.94805 0 7.288 0 10.0039C0 12.7198 0.0117538 13.0598 0.0586166 14.1266C0.105479 15.1895 0.277513 15.9202 0.523733 16.5534C0.777738 17.2255 1.17233 17.8272 1.68034 18.3275C2.18057 18.8355 2.78627 19.2302 3.45059 19.4803C4.08759 19.7265 4.81434 19.8984 5.87738 19.9452C6.94408 19.9922 7.28418 20.0038 10.0001 20.0038C12.716 20.0038 13.0559 19.9922 14.1228 19.9452C15.1857 19.8984 15.9164 19.7265 16.5494 19.4803C17.8938 18.9605 18.9567 17.8976 19.4764 16.5534C19.7225 15.9164 19.8945 15.1895 19.9414 14.1266C19.9882 13.0598 20 12.7198 20 10.0039C20 7.288 19.996 6.94805 19.9492 5.8812ZM18.1478 14.0484C18.1047 15.0254 17.9406 15.5529 17.8039 15.9046C17.4677 16.7761 16.7761 17.4678 15.9046 17.8039C15.5529 17.9407 15.0216 18.1047 14.0484 18.1476C12.9933 18.1947 12.6769 18.2063 10.0079 18.2063C7.33882 18.2063 7.01842 18.1947 5.96714 18.1476C4.99019 18.1047 4.46264 17.9407 4.11094 17.8039C3.67727 17.6436 3.28253 17.3896 2.96212 17.0574C2.62996 16.7331 2.37596 16.3423 2.21568 15.9086C2.0789 15.5569 1.91481 15.0254 1.87191 14.0524C1.8249 12.9973 1.8133 12.6807 1.8133 10.0117C1.8133 7.34265 1.8249 7.02224 1.87191 5.97111C1.91481 4.99417 2.0789 4.46662 2.21568 4.11492C2.37596 3.68109 2.62996 3.2865 2.96609 2.96594C3.29031 2.63378 3.68109 2.37977 4.11491 2.21965C4.46661 2.08287 4.99813 1.91878 5.9711 1.87573C7.0262 1.82887 7.34279 1.81712 10.0117 1.81712C12.6847 1.81712 13.0011 1.82887 14.0524 1.87573C15.0293 1.91878 15.5569 2.08287 15.9086 2.21965C16.3423 2.37977 16.737 2.63378 17.0574 2.96594C17.3896 3.29032 17.6436 3.68109 17.8039 4.11492C17.9406 4.46662 18.1047 4.99798 18.1478 5.97111C18.1946 7.02621 18.2064 7.34265 18.2064 10.0117C18.2064 12.6807 18.1946 12.9934 18.1478 14.0484Z" fill="#040404"/>
<path d="M10.0033 4.86572C7.16639 4.86572 4.86462 7.16734 4.86462 10.0044C4.86462 12.8416 7.16639 15.1432 10.0033 15.1432C12.8404 15.1432 15.1421 12.8416 15.1421 10.0044C15.1421 7.16734 12.8404 4.86572 10.0033 4.86572ZM10.0033 13.3378C8.16288 13.3378 6.66998 11.8451 6.66998 10.0044C6.66998 8.16382 8.16288 6.67108 10.0033 6.67108C11.844 6.67108 13.3367 8.16382 13.3367 10.0044C13.3367 11.8451 11.844 13.3378 10.0033 13.3378Z" fill="#040404"/>
<path d="M16.5452 4.66206C16.5452 5.32455 16.0081 5.86172 15.3454 5.86172C14.6829 5.86172 14.1458 5.32455 14.1458 4.66206C14.1458 3.99942 14.6829 3.4624 15.3454 3.4624C16.0081 3.4624 16.5452 3.99942 16.5452 4.66206Z" fill="#040404"/>
</svg>
