<svg xmlns="http://www.w3.org/2000/svg" viewBox="0 0 158 116" width="158" height="116">
	<style>
		tspan { white-space:pre }
		.shp0 { fill: #ffffff } 
		.shp1 { fill: #ff0000 } 
	</style>
	<g id="Layer">
		<path id="Layer" class="shp0" d="M23.7 17.4L26.6 29.9L35.8 29.9C31.3 50.5 22.9 89.3 22.9 89.3C22 93 20.5 97 17.5 99.5C13.9 102.5 8.2 101.8 4 100.7L0.5 112.7C1.3 112.9 11.1 115.6 19.8 113.8C24.8 112.7 29.5 109.3 31.7 106.1C34.4 102.3 35.9 95.9 37.1 91.4C38.1 87.7 52.9 17.3 52.9 17.3L23.7 17.3L23.7 17.4Z" />
		<path id="Layer" class="shp0" d="M137.8 78.5C135.8 79.3 133.9 79.9 132.4 80.1C127.9 80.6 124.5 77.5 127.1 66.3C130 53.8 135.4 29.9 135.4 29.9L154.3 29.9L157.2 17.4L138.2 17.4L142.1 0.5L128.3 0.5C127.7 3 114.6 58.4 113.4 64.2C111.8 71.8 109.4 80.4 114.8 87.2C118.1 91.3 123 92.5 128.1 92.5C132.1 92.5 135.6 92 138.5 90.7C137.1 88.9 136.2 86.6 136.2 84.1C136.2 82 136.8 80.1 137.8 78.5L137.8 78.5Z" />
		<path id="Layer" class="shp1" d="M146.9 76.5C145.3 76.5 143.8 77 142.6 77.9C140.7 79.3 139.4 81.5 139.4 84.1C139.4 86 140.1 87.7 141.2 89C142.6 90.6 144.6 91.6 146.9 91.6C151 91.6 154.4 88.2 154.4 84.1C154.5 79.9 151.1 76.5 146.9 76.5L146.9 76.5Z" />
		<path id="Layer" fill-rule="evenodd" class="shp0" d="M67.1 61C67.1 61 66.8 65.3 67.1 68.1C67.9 75.9 73.4 80.9 82.1 80.8C93.2 80.7 103 75.2 103 75.2L100 89C100 89 90.9 92.5 79.6 92.7C70.5 92.7 61.8 90.8 56.5 83.7C49.7 74.6 49.9 62.7 51.9 52.1C55.2 34.9 68.8 16.9 89.4 16.2C95.7 15.9 103 17.5 107.8 21.8C113.8 27.2 114.4 36 111.6 43.2C105.7 58.7 84.2 61 70 61L67.1 61ZM89.1 28C83.2 28 71.7 33.7 68.7 48.9L70.7 48.9C79.1 48.9 85.7 47.7 90.5 45.3C95.2 42.9 97.6 39.5 97.6 35.2C97.6 32.9 96.9 31.2 95.5 29.9C94.1 28.6 91.9 28 89.1 28Z" />
	</g>
</svg>