<svg width="475" height="141" viewBox="0 0 475 141" fill="none" xmlns="http://www.w3.org/2000/svg">
<path d="M158.4 26.46H185V36.54C190.18 30.24 196.62 24.78 207.96 24.78C226.02 24.78 241.56 39.76 241.56 63.98V64.26C241.56 88.9 226.02 103.88 208.1 103.88C196.62 103.88 189.9 98.7 185 92.96V140.13H158.4V26.46ZM215.38 64.4V64.12C215.38 54.18 208.52 47.04 199.84 47.04C191.3 47.04 184.44 54.18 184.44 64.12V64.4C184.44 74.48 191.3 81.62 199.84 81.62C208.52 81.62 215.38 74.62 215.38 64.4Z" fill="white"/>
<path d="M247.16 76.02V26.46H273.76V67.48C273.76 75.74 278.1 80.22 284.54 80.22C290.84 80.22 295.6 75.74 295.6 67.48V26.46H322.2V102.2H295.6V91.84C290.7 98.14 283.7 103.88 272.92 103.88C256.82 103.89 247.16 93.24 247.16 76.02Z" fill="white"/>
<path d="M325.42 92.68L335.36 76.58C344.04 82.32 353.56 85.26 361.4 85.26C366.02 85.26 368.12 83.86 368.12 81.2V80.92C368.12 77.98 363.92 76.72 355.94 74.48C340.96 70.56 329.06 65.52 329.06 50.26V49.98C329.06 33.88 341.94 24.92 359.44 24.92C370.5 24.92 381.98 28.14 390.66 33.74L381.56 50.54C373.72 46.2 365.18 43.54 359.16 43.54C355.1 43.54 353 45.08 353 47.18V47.46C353 50.4 357.34 51.8 365.32 54.18C380.3 58.38 392.2 63.56 392.2 78.26V78.54C392.2 95.2 379.74 103.88 361.26 103.88C348.52 103.89 335.92 100.24 325.42 92.68Z" fill="white"/>
<path d="M397.81 0H424.41V36.82C429.31 30.52 436.31 24.78 447.09 24.78C463.19 24.78 472.85 35.42 472.85 52.64V102.2H446.25V61.18C446.25 52.92 441.91 48.44 435.61 48.44C429.17 48.44 424.41 52.92 424.41 61.18V102.2H397.81V0Z" fill="white"/>
<path d="M203.22 139.76V117.95H218.74V119.45H204.84V128.02H217.34V129.52H204.84V138.28H218.89V139.78H203.22V139.76Z" fill="#52A792"/>
<path d="M228.87 131.38V129.64H237.22V131.38H228.87Z" fill="#52A792"/>
<path d="M258.35 140.14C252.12 140.14 247.51 135.19 247.51 128.92V128.86C247.51 122.69 252.12 117.58 258.42 117.58C262.32 117.58 264.65 119.01 266.9 121.07L265.75 122.25C263.85 120.41 261.67 119.04 258.4 119.04C253.17 119.04 249.21 123.31 249.21 128.79V128.85C249.21 134.37 253.23 138.67 258.43 138.67C261.58 138.67 263.73 137.45 265.94 135.27L267.03 136.33C264.7 138.61 262.21 140.14 258.35 140.14Z" fill="#52A792"/>
<path d="M286.64 140.14C280.03 140.14 275.7 134.87 275.7 128.92V128.86C275.7 122.91 280.09 117.58 286.7 117.58C293.31 117.58 297.64 122.85 297.64 128.8C297.67 128.83 297.67 128.83 297.64 128.86C297.64 134.81 293.25 140.14 286.64 140.14ZM295.96 128.86C295.96 123.47 292.03 119.04 286.64 119.04C281.25 119.04 277.39 123.4 277.39 128.79V128.85C277.39 134.24 281.32 138.67 286.71 138.67C292.1 138.67 295.96 134.31 295.96 128.92V128.86Z" fill="#52A792"/>
<path d="M327.93 139.76V120.81L319.3 133.37H319.18L310.55 120.81V139.76H308.99V117.95H310.52L319.28 130.85L328.04 117.95H329.55V139.76H327.93Z" fill="#52A792"/>
<path d="M360.81 139.76V120.81L352.18 133.37H352.06L343.43 120.81V139.76H341.87V117.95H343.4L352.16 130.85L360.92 117.95H362.45V139.76H360.81Z" fill="#52A792"/>
<path d="M374.74 139.76V117.95H390.26V119.45H376.36V128.02H388.86V129.52H376.36V138.28H390.41V139.78H374.74V139.76Z" fill="#52A792"/>
<path d="M417.15 139.76L410.2 130.72H403.06V139.76H401.44V117.95H410.6C415.31 117.95 418.39 120.51 418.39 124.15V124.21C418.39 127.86 415.68 129.94 412 130.44L419.2 139.76H417.15ZM416.78 124.21C416.78 121.28 414.47 119.44 410.52 119.44H403.07V129.26H410.42C414.07 129.26 416.78 127.42 416.78 124.27V124.21Z" fill="#52A792"/>
<path d="M439.68 140.14C433.45 140.14 428.84 135.19 428.84 128.92V128.86C428.84 122.69 433.45 117.58 439.75 117.58C443.65 117.58 445.98 119.01 448.23 121.07L447.08 122.25C445.18 120.41 443 119.04 439.73 119.04C434.49 119.04 430.54 123.31 430.54 128.79V128.85C430.54 134.37 434.56 138.67 439.76 138.67C442.91 138.67 445.06 137.45 447.27 135.27L448.36 136.33C446.04 138.61 443.54 140.14 439.68 140.14Z" fill="#52A792"/>
<path d="M458.63 139.76V117.95H474.15V119.45H460.25V128.02H472.75V129.52H460.25V138.28H474.3V139.78H458.63V139.76Z" fill="#52A792"/>
<path fill-rule="evenodd" clip-rule="evenodd" d="M69.9 98.7C53.99 98.7 41.1 85.81 41.1 69.9C41.1 53.99 53.99 41.1 69.9 41.1C85.81 41.1 98.7 53.99 98.7 69.9C98.7 85.81 85.81 98.7 69.9 98.7Z" fill="white"/>
<path d="M69.9 0C31.36 0 0 31.36 0 69.9C0 89.6 8.20001 107.42 21.35 120.14V67.32H21.42C22.76 41.75 43.99 21.36 69.89 21.36C96.65 21.36 118.43 43.13 118.43 69.9C118.43 96.67 96.66 118.44 69.89 118.44C59.12 118.44 49.15 114.91 41.09 108.95V133.59C49.88 137.58 59.63 139.8 69.89 139.8C108.43 139.8 139.79 108.44 139.79 69.9C139.8 31.36 108.45 0 69.9 0Z" fill="#52A792"/>
</svg>
