<svg width="113" height="15" viewBox="0 0 113 15" fill="none" xmlns="http://www.w3.org/2000/svg">
<g clip-path="url(#clip0)">
<path d="M1.14441e-05 5.49793L5.17059 5.158L7.11785 0.265991L9.0651 5.158L14.23 5.49793L10.2686 8.86161L11.5685 13.9641L7.11785 11.1509L2.66716 13.9641L3.9671 8.86161L1.14441e-05 5.49793Z" fill="#ffe421"/>
</g>
<g clip-path="url(#clip1)">
<path d="M48.46 5.49793L54.1477 5.158L56.2897 0.265991L58.4316 5.158L64.113 5.49793L59.7554 8.86161L61.1854 13.9641L56.2897 11.1509L51.3939 13.9641L52.8238 8.86161L48.46 5.49793Z" fill="#ffe421"/>
</g>
<g clip-path="url(#clip2)">
<path d="M24.23 5.49793L29.4006 5.158L31.3479 0.265991L33.2951 5.158L38.46 5.49793L34.4986 8.86161L35.7985 13.9641L31.3479 11.1509L26.8972 13.9641L28.1971 8.86161L24.23 5.49793Z" fill="#ffe421"/>
</g>
<g clip-path="url(#clip3)">
<path d="M74.113 5.49793L79.2836 5.158L81.2309 0.265991L83.1781 5.158L88.343 5.49793L84.3816 8.86161L85.6815 13.9641L81.2309 11.1509L76.7802 13.9641L78.0801 8.86161L74.113 5.49793Z" fill="#ffe421"/>
</g>
<g clip-path="url(#clip4)">
<path d="M98.343 5.49793L103.514 5.158L105.461 0.265991L107.408 5.158L112.573 5.49793L108.612 8.86161L109.911 13.9641L105.461 11.1509L101.01 13.9641L102.31 8.86161L98.343 5.49793Z" fill="#ffe421"/>
</g>
<defs>
<clipPath id="clip0">
<rect width="14.23" height="14.23" fill="white" transform="matrix(-1 0 0 1 14.23 0)"/>
</clipPath>
<clipPath id="clip1">
<rect width="15.653" height="14.23" fill="white" transform="matrix(-1 0 0 1 64.113 0)"/>
</clipPath>
<clipPath id="clip2">
<rect width="14.23" height="14.23" fill="white" transform="matrix(-1 0 0 1 38.46 0)"/>
</clipPath>
<clipPath id="clip3">
<rect width="14.23" height="14.23" fill="white" transform="matrix(-1 0 0 1 88.343 0)"/>
</clipPath>
<clipPath id="clip4">
<rect width="14.23" height="14.23" fill="white" transform="matrix(-1 0 0 1 112.573 0)"/>
</clipPath>
</defs>
</svg>
