<svg width="500" height="500" viewBox="0 0 500 500" fill="none" xmlns="http://www.w3.org/2000/svg">
<path d="M160.946 135.396H148.137C148.05 135.394 147.964 135.414 147.886 135.453C147.808 135.492 147.74 135.549 147.689 135.62L92.6434 211.384L37.4056 135.684C37.3648 135.606 37.3056 135.539 37.233 135.488C37.1605 135.438 37.0769 135.406 36.9894 135.396H24.1806C24.0982 135.385 24.0145 135.394 23.936 135.421C23.8574 135.448 23.786 135.492 23.7273 135.551C23.6686 135.61 23.6241 135.681 23.5972 135.759C23.5703 135.838 23.5618 135.922 23.5722 136.004V272.642C23.595 272.769 23.6622 272.884 23.762 272.966C23.8617 273.048 23.9874 273.092 24.1166 273.09H43.3297C43.4044 273.127 43.4866 273.146 43.5699 273.146C43.6531 273.146 43.7353 273.127 43.81 273.09C43.9122 272.988 43.9698 272.85 43.9701 272.706L43.5538 179.266L92.2271 244.27C92.2784 244.341 92.3459 244.398 92.424 244.437C92.502 244.476 92.5882 244.496 92.6754 244.494C92.7627 244.496 92.8489 244.476 92.9269 244.437C93.0049 244.398 93.0724 244.341 93.1237 244.27L141.317 179.842L141.125 272.706C141.125 272.777 141.139 272.848 141.166 272.914C141.193 272.98 141.233 273.04 141.284 273.091C141.335 273.141 141.395 273.181 141.461 273.209C141.527 273.236 141.597 273.25 141.669 273.25H160.882C160.954 273.25 161.024 273.236 161.09 273.209C161.156 273.181 161.216 273.141 161.267 273.091C161.318 273.04 161.358 272.98 161.385 272.914C161.412 272.848 161.426 272.777 161.426 272.706V136.004C161.435 135.933 161.43 135.86 161.411 135.79C161.391 135.721 161.358 135.656 161.314 135.599C161.269 135.543 161.213 135.496 161.15 135.461C161.087 135.426 161.018 135.404 160.946 135.396" fill="#231F20"/>
<path d="M334.889 135.395H312.89C312.788 135.398 312.689 135.43 312.604 135.487C312.519 135.543 312.452 135.623 312.41 135.716L266.939 206.132L221.82 135.716C221.78 135.627 221.718 135.551 221.639 135.495C221.56 135.438 221.468 135.404 221.371 135.395H199.372C199.274 135.395 199.177 135.422 199.092 135.473C199.008 135.524 198.938 135.597 198.892 135.684C198.844 135.766 198.819 135.86 198.819 135.956C198.819 136.051 198.844 136.145 198.892 136.228L256.531 225.313V272.641C256.531 272.713 256.546 272.784 256.573 272.85C256.6 272.916 256.64 272.976 256.691 273.026C256.741 273.077 256.801 273.117 256.867 273.144C256.934 273.172 257.004 273.186 257.076 273.186H277.154C277.298 273.186 277.436 273.128 277.538 273.026C277.641 272.924 277.698 272.786 277.698 272.641V225.377L335.337 136.292C335.407 136.211 335.451 136.111 335.464 136.005C335.477 135.899 335.458 135.791 335.41 135.695C335.362 135.6 335.287 135.52 335.195 135.467C335.102 135.414 334.996 135.389 334.889 135.395" fill="#231F20"/>
<path d="M475.465 272.514L411.998 135.684C411.947 135.598 411.874 135.526 411.787 135.477C411.7 135.427 411.602 135.401 411.502 135.401C411.401 135.401 411.303 135.427 411.216 135.477C411.129 135.526 411.056 135.598 411.005 135.684L347.538 272.514C347.496 272.593 347.474 272.681 347.474 272.77C347.474 272.859 347.496 272.947 347.538 273.026C347.586 273.103 347.652 273.166 347.73 273.211C347.808 273.255 347.896 273.28 347.986 273.282H368.288C368.396 273.285 368.502 273.257 368.593 273.2C368.684 273.143 368.756 273.06 368.8 272.962L411.518 180.098L454.811 272.962C454.853 273.055 454.921 273.134 455.006 273.191C455.09 273.248 455.19 273.279 455.292 273.282H475.081C475.171 273.28 475.259 273.255 475.338 273.211C475.416 273.166 475.482 273.103 475.529 273.026C475.572 272.947 475.594 272.859 475.594 272.77C475.594 272.681 475.572 272.593 475.529 272.514" fill="#231F20"/>
<path d="M161.49 293.552H162.259V317.344C163.86 314.142 170.168 310.107 179.199 310.107C191.015 310.107 197.195 315.07 197.195 327.815V361.118H196.49V327.815C196.49 315.647 190.502 310.876 179.263 310.876C170.329 310.876 163.764 314.974 162.323 318.401V361.118H161.555L161.49 293.552Z" fill="#231F20"/>
<path d="M198.54 362.463H195.082V327.816C195.082 316.896 190.342 312.221 179.071 312.221C170.873 312.221 164.885 315.904 163.476 318.625V362.463H160.146V292.303H163.636V313.758C168.127 310.404 173.629 308.686 179.231 308.891C192.424 308.891 198.444 314.943 198.444 328.104L198.54 362.463Z" fill="#231F20"/>
<path d="M344.175 339.695C339.841 337.264 335.117 335.606 330.214 334.796L325.218 333.771L323.073 333.163C321.752 332.862 320.48 332.377 319.294 331.722C317.824 330.967 316.622 329.779 315.849 328.319C315.075 326.859 314.769 325.196 314.971 323.556C314.971 315.807 320.159 310.748 330.374 310.908C338.988 310.908 344.496 315.135 345.648 322.724H346.481C345.136 314.558 339.66 309.915 330.47 310.075C319.871 310.075 314.235 315.263 314.235 323.556C314.226 325.997 314.976 328.38 316.38 330.377C317.417 331.377 318.58 332.238 319.839 332.939C320.585 333.293 321.369 333.562 322.176 333.739L324.514 334.348L327.364 334.956L330.118 335.564C334.841 336.374 339.39 337.988 343.567 340.336C344.883 341.249 345.935 342.495 346.615 343.945C347.296 345.396 347.581 347.001 347.442 348.597C347.442 357.467 341.037 361.854 331.014 361.854C321.76 361.854 315.26 357.82 313.69 349.718H312.858C314.491 358.268 321.376 362.751 330.982 362.751C341.197 362.751 348.21 357.948 348.21 348.661C348.386 346.954 348.102 345.232 347.387 343.672C346.672 342.112 345.552 340.772 344.143 339.791" fill="#231F20"/>
<path d="M330.982 364C320.319 364 313.21 358.876 311.481 349.942L311.161 348.341H314.971L315.195 349.43C316.572 356.539 322.24 360.446 331.206 360.446C336.842 360.446 346.289 358.908 346.289 348.533C346.434 347.171 346.214 345.794 345.651 344.545C345.089 343.295 344.203 342.218 343.086 341.424C339.001 339.178 334.56 337.651 329.958 336.909L324.354 335.693L321.952 335.052C321.045 334.842 320.164 334.53 319.326 334.124C317.926 333.359 316.633 332.412 315.484 331.306V331.306C313.914 329.075 313.075 326.412 313.082 323.684C313.013 321.794 313.327 319.91 314.003 318.143C314.68 316.377 315.706 314.766 317.021 313.405C320.697 310.186 325.497 308.552 330.374 308.858H330.982C340.589 308.858 346.673 313.726 348.114 322.628L348.37 324.197H344.784L344.592 323.044C343.535 316.159 338.699 312.381 330.95 312.381H330.022C326.071 312.086 322.163 313.35 319.134 315.903C318.145 316.934 317.376 318.155 316.875 319.493C316.374 320.831 316.151 322.257 316.22 323.684C316.03 325.087 316.282 326.513 316.943 327.765C317.603 329.017 318.638 330.031 319.903 330.665L320.543 330.985C321.422 331.441 322.36 331.775 323.329 331.978L325.506 332.586L327.044 332.907L330.246 333.579C335.331 334.415 340.231 336.138 344.72 338.671C346.324 339.772 347.606 341.282 348.433 343.043C349.261 344.805 349.604 346.755 349.427 348.693C349.619 358.076 342.478 364 330.982 364Z" fill="#231F20"/>
<path d="M294.894 353.144C292.984 355.939 290.387 358.196 287.354 359.699C284.32 361.202 280.951 361.9 277.57 361.726C268.54 361.726 262.52 357.243 262.52 348.405C262.52 339.567 269.469 336.589 284.935 333.643L294.83 331.754L294.894 353.144ZM278.883 310.043C268.732 310.043 263.865 315.422 262.872 318.4H263.737C265.375 315.866 267.669 313.822 270.375 312.486C273.081 311.149 276.099 310.571 279.107 310.811C291.276 310.811 295.118 316.799 295.118 331.081L285.031 332.97C269.341 335.916 262.008 338.862 262.008 348.405C262.008 357.947 268.188 362.495 277.794 362.495C281.152 362.674 284.501 362.003 287.53 360.541C290.559 359.08 293.169 356.877 295.118 354.137V361.086H295.759V330.569C295.759 316.383 291.66 310.107 279.107 310.107" fill="#231F20"/>
<path d="M277.57 363.904C266.939 363.904 260.535 358.108 260.535 348.469C260.535 337.134 270.526 334.38 284.679 331.722L293.645 330.025C293.453 316.768 289.707 312.253 279.107 312.253C269.501 312.253 265.818 317.536 264.922 319.137L264.537 319.842H260.823L261.559 317.985C262.808 314.782 267.964 308.762 278.979 308.762C291.788 308.762 297.008 315.167 297.008 330.569V362.591H293.517V358.108C289.15 362.028 283.435 364.106 277.57 363.904V363.904ZM293.581 333.451L285.288 335.052C270.141 337.902 263.737 340.336 263.737 348.469C263.737 358.876 272.319 360.446 277.41 360.446C280.497 360.621 283.58 360.021 286.376 358.702C289.172 357.382 291.594 355.383 293.421 352.888L293.581 333.451Z" fill="#231F20"/>
<path d="M245.708 353.144C243.819 355.934 241.246 358.193 238.236 359.707C235.226 361.22 231.878 361.938 228.512 361.79C219.482 361.79 213.462 357.307 213.462 348.469C213.462 339.631 220.411 336.653 235.877 333.707L245.772 331.818L245.708 353.144ZM229.697 310.043C219.546 310.043 214.679 315.422 213.686 318.4H214.487C216.125 315.866 218.419 313.822 221.125 312.486C223.831 311.149 226.849 310.571 229.857 310.811C242.026 310.811 245.868 316.799 245.868 331.081L235.781 332.97C220.091 335.916 212.758 338.862 212.758 348.405C212.758 357.947 218.906 362.527 228.512 362.527C231.87 362.707 235.219 362.035 238.248 360.573C241.277 359.112 243.887 356.909 245.836 354.169V361.118H246.605V330.569C246.605 316.383 242.506 310.107 229.953 310.107" fill="#231F20"/>
<path d="M228.512 363.904C217.753 363.904 211.349 358.14 211.349 348.469C211.349 337.134 221.339 334.38 235.493 331.722L244.459 330.025C244.267 316.768 240.521 312.253 229.921 312.253C220.315 312.253 216.632 317.536 215.736 319.137L215.351 319.842H211.637L212.501 317.921C213.75 314.718 218.906 308.698 229.921 308.698C242.73 308.698 247.95 315.103 247.95 330.505V362.527H244.331V358.044C240.007 361.957 234.342 364.055 228.512 363.904V363.904ZM244.523 333.451L236.23 335.052C221.179 337.902 214.871 340.4 214.871 348.469C214.871 358.877 223.453 360.446 228.544 360.446C231.632 360.624 234.715 360.026 237.512 358.706C240.309 357.386 242.731 355.386 244.555 352.888L244.523 333.451Z" fill="#231F20"/>
<path d="M429.098 247.472C428.324 248.171 427.349 248.608 426.312 248.721C426.909 247.949 427.574 247.231 428.297 246.576C429.13 245.839 430.219 246.223 429.098 247.472ZM418.659 257.655C416.345 256.894 413.922 256.516 411.486 256.534C409.05 256.516 406.627 256.894 404.313 257.655C403.05 255.113 401.433 252.763 399.51 250.674C401.152 251.185 402.852 251.486 404.569 251.571C405.97 251.51 407.335 251.104 408.541 250.389C409.748 249.674 410.759 248.672 411.486 247.472C412.227 248.648 413.245 249.625 414.451 250.317C415.656 251.009 417.013 251.396 418.403 251.443C420.12 251.359 421.82 251.057 423.462 250.546C421.526 252.684 419.909 255.089 418.659 257.687M410.429 239.755C410.429 236.937 411.198 236.04 411.422 236.04C411.646 236.04 412.414 236.937 412.414 239.755C412.392 241.449 412.044 243.123 411.39 244.686V244.686C410.736 243.123 410.388 241.449 410.365 239.755M393.874 247.472C392.753 246.191 393.874 245.839 394.674 246.576C395.398 247.231 396.062 247.949 396.66 248.721C395.623 248.608 394.648 248.171 393.874 247.472M430.251 245.071C428.105 243.854 425.768 246.864 424.166 249.265C422.332 249.785 420.437 250.065 418.531 250.098C417.275 250.052 416.051 249.687 414.975 249.037C413.9 248.387 413.007 247.474 412.382 246.383C413.386 244.393 413.943 242.207 414.016 239.979C414.016 236.777 413.087 234.952 411.646 234.952C410.205 234.952 409.276 236.905 409.276 239.979C409.349 242.207 409.906 244.393 410.909 246.383C410.277 247.498 409.367 248.429 408.266 249.086C407.166 249.743 405.914 250.103 404.633 250.13C402.726 250.097 400.832 249.817 398.997 249.297C397.396 246.896 395.059 243.886 392.913 245.103C390.768 246.319 392.433 248.529 393.938 249.362C395.115 249.969 396.378 250.39 397.684 250.61C398.291 251.213 398.858 251.855 399.382 252.532V252.532C400.999 254.469 402.336 256.625 403.352 258.936C403.387 259.023 403.439 259.102 403.505 259.168C403.571 259.235 403.65 259.287 403.736 259.323C403.822 259.359 403.915 259.377 404.009 259.376C404.102 259.376 404.195 259.357 404.281 259.32C406.604 258.452 409.07 258.029 411.55 258.071V258.071C414.03 258.029 416.496 258.452 418.819 259.32C418.905 259.357 418.997 259.376 419.091 259.376C419.185 259.377 419.277 259.359 419.364 259.323C419.45 259.287 419.529 259.235 419.595 259.168C419.66 259.102 419.712 259.023 419.747 258.936C420.764 256.625 422.1 254.469 423.718 252.532V252.532C424.24 251.853 424.807 251.211 425.415 250.61V250.61C426.72 250.387 427.984 249.966 429.162 249.362C430.667 248.529 432.172 246.159 430.187 245.103" fill="#231F20"/>
</svg>
